[IMG]http://i1022.photobucket.com/albums/af345/bhoottt/WWE.jpg[/IMG]

[IMG]http://i1022.photobucket.com/albums/af345/bhoottt/WWEFridayNightSmackdown-24thSept2010-Xvid-PdtvVAMPIREROCKs_20100924-17143134.jpg[/IMG]
[IMG]http://i1022.photobucket.com/albums/af345/bhoottt/WWEFridayNightSmackdown-24thSept2010-Xvid-PdtvVAMPIREROCKs_20100924-17140092.jpg[/IMG]
[IMG]http://i1022.photobucket.com/albums/af345/bhoottt/WWEFridayNightSmackdown-24thSept2010-Xvid-PdtvVAMPIREROCKs_20100924-17130389.jpg[/IMG]
[IMG]http://i1022.photobucket.com/albums/af345/bhoottt/WWEFridayNightSmackdown-24thSept2010-Xvid-PdtvVAMPIREROCKs_20100924-17103656.jpg[/IMG]
[IMG]http://i1022.photobucket.com/albums/af345/bhoottt/WWEFridayNightSmackdown-24thSept2010-Xvid-PdtvVAMPIREROCKs_20100924-17105242.jpg[/IMG]
[IMG]http://i1022.photobucket.com/albums/af345/bhoottt/WWEFridayNightSmackdown-24thSept2010-Xvid-PdtvVAMPIREROCKs_20100924-17143848.jpg[/IMG]



Video
ID                               : 0
Format                           : MPEG-4 Visual
Format profile                   : Advanced Simple@L5
Format settings, BVOP            : Yes
Format settings, QPel            : No
Format settings, GMC             : No warppoints
Format settings, Matrix          : Default (H.263)
Codec ID                         : XVID
Codec ID/Hint                    : XviD
Duration                         : 1h 21mn
Bit rate                         : 1 135 Kbps
Width                            : 624 pixels
Height                           : 352 pixels
Display aspect ratio             : 16:9
Frame rate                       : 25.000 fps
Resolution                       : 8 bits
Colorimetry                      : 4:2:0
Scan type                        : Progressive
Bits/(Pixel*Frame)               : 0.207
Stream size                      : 665 MiB (89%)
Writing library                  : XviD 1.2.1 (UTC 2008-12-04)

Audio
ID                               : 1
Format                           : MPEG Audio
Format version                   : Version 1
Format profile                   : Layer 3
Mode                             : Joint stereo
Format_Settings_ModeExtension    : MS Stereo
Codec ID                         : 55
Codec ID/Hint                    : MP3
Duration                         : 1h 21mn
Bit rate mode                    : Variable
Bit rate                         : 125 Kbps
Nominal bit rate                 : 150 Kbps
Channel(s)                       : 2 channels
Sampling rate                    : 48.0 KHz
Stream size                      : 73.1 MiB (10%)
Alignment                        : Aligned on interleaves
Interleave, duration             : 24 ms (0.60 video frame)